<svg width="206" height="53" viewBox="0 0 206 53" fill="none" xmlns="http://www.w3.org/2000/svg">
<path fill-rule="evenodd" clip-rule="evenodd" d="M72.4205 10.166H63.2718V32.5941H68.1978V25.8663H71.9406C76.9632 25.8663 80.9939 23.1746 80.9939 17.9844V17.9198C80.9939 13.3385 77.763 10.166 72.4205 10.166ZM76.0039 18.08C76.0039 20.0027 74.5642 21.4762 72.1011 21.4762H68.1978V14.6197H72.0046C74.4682 14.6197 76.0039 15.8054 76.0039 18.0159V18.08Z" fill="#002856"/>
<path d="M85.7606 10.166H102.651V14.5562H90.6552V19.1054H101.212V23.495H90.6552V28.205H102.811V32.5941H85.7606V10.166Z" fill="#002856"/>
<path d="M108.682 10.166H113.224L123.717 23.9751V10.166H128.579V32.5941H124.388L113.544 18.3363V32.5941H108.682V10.166Z" fill="#002856"/>
<path d="M135.333 10.166H152.383V14.6517H140.258V19.4259H150.944V23.9116H140.258V32.5941H135.333V10.166Z" fill="#00A1DF"/>
<path d="M157.374 10.166H174.264V14.5562H162.268V19.1054H172.825V23.495H162.268V28.205H174.424V32.5941H157.374V10.166Z" fill="#00A1DF"/>
<path fill-rule="evenodd" clip-rule="evenodd" d="M189.028 10.166H180.294V32.5941H189.028C196.065 32.5941 200.927 27.6918 200.927 21.3806V21.316C200.927 15.0042 196.065 10.166 189.028 10.166ZM185.221 28.141V14.6197H189.028C193.058 14.6197 195.777 17.4076 195.777 21.3806V21.4441C195.777 25.4171 193.058 28.141 189.028 28.141H185.221Z" fill="#00A1DF"/>
<path d="M62.381 44.7077V44.6768C62.381 41.5724 64.7171 39.0312 68.0648 39.0312C70.1197 39.0312 71.3501 39.7177 72.3621 40.7156L70.8365 42.478C69.9951 41.7135 69.1391 41.2457 68.049 41.2457C66.2119 41.2457 64.8883 42.7732 64.8883 44.6453V44.6768C64.8883 46.5477 66.1804 48.1073 68.049 48.1073C69.2946 48.1073 70.058 47.6086 70.914 46.8283L72.4401 48.3726C71.3192 49.5735 70.0731 50.3217 67.971 50.3217C64.7631 50.3217 62.381 47.8425 62.381 44.7077Z" fill="#002856"/>
<path fill-rule="evenodd" clip-rule="evenodd" d="M80.8093 39.2168H75.8265V50.1334H78.2239V46.64H80.1082L82.4438 50.1334H85.247L82.5841 46.2346C83.97 45.7197 84.9197 44.6121 84.9197 42.8502V42.8188C84.9197 41.7894 84.593 40.932 83.9857 40.3238C83.2695 39.6058 82.1946 39.2168 80.8093 39.2168ZM82.4904 42.975C82.4904 43.8948 81.8213 44.5188 80.6532 44.5188H78.2239V41.384H80.6066C81.7747 41.384 82.4904 41.9148 82.4904 42.9441V42.975Z" fill="#002856"/>
<path d="M88.7512 39.2168H96.9727V41.3531H91.1334V43.567H96.2722V45.7045H91.1334V47.9971H97.0507V50.1334H88.7512V39.2168Z" fill="#002856"/>
<path fill-rule="evenodd" clip-rule="evenodd" d="M105.19 39.2168H100.94V50.1334H105.19C108.616 50.1334 110.983 47.7475 110.983 44.6751V44.6436C110.983 41.5707 108.616 39.2168 105.19 39.2168ZM103.337 47.9656V41.384H105.19C107.153 41.384 108.476 42.7412 108.476 44.6751V44.706C108.476 46.64 107.153 47.9656 105.19 47.9656H103.337Z" fill="#002856"/>
<path d="M114.787 50.1334H117.185V39.2168H114.787V50.1334Z" fill="#002856"/>
<path d="M123.79 41.4307H120.472V39.2168H129.504V41.4307H126.187V50.1334H123.79V41.4307Z" fill="#002856"/>
<path d="M138.961 45.4543V39.2168H141.36V45.3919C141.36 47.1701 142.247 48.0899 143.711 48.0899C145.174 48.0899 146.062 47.2016 146.062 45.4706V39.2168H148.46V45.3767C148.46 48.683 146.606 50.3043 143.679 50.3043C140.752 50.3043 138.961 48.6672 138.961 45.4543Z" fill="#002856"/>
<path d="M152.642 39.2168H154.853L159.96 45.9384V39.2168H162.327V50.1334H160.288L155.009 43.1932V50.1334H152.642V39.2168Z" fill="#002856"/>
<path d="M166.683 50.1334H169.08V39.2168H166.683V50.1334Z" fill="#002856"/>
<path fill-rule="evenodd" clip-rule="evenodd" d="M172.854 44.6768V44.7077C172.854 47.811 175.268 50.3217 178.631 50.3217C181.995 50.3217 184.438 47.7795 184.438 44.6768V44.6453C184.438 41.5414 182.025 39.0312 178.661 39.0312C175.299 39.0312 172.854 41.5724 172.854 44.6768ZM181.932 44.6768V44.7077C181.932 46.5792 180.592 48.1073 178.661 48.1073C176.731 48.1073 175.361 46.5477 175.361 44.6768V44.6453C175.361 42.7732 176.7 41.2457 178.631 41.2457C180.561 41.2457 181.932 42.8047 181.932 44.6768Z" fill="#002856"/>
<path d="M188.167 39.2168H190.378L195.484 45.9384V39.2168H197.852V50.1334H195.812L190.533 43.1932V50.1334H188.167V39.2168Z" fill="#002856"/>
<mask id="mask0" mask-type="alpha" maskUnits="userSpaceOnUse" x="23" y="0" width="175" height="53">
<path fill-rule="evenodd" clip-rule="evenodd" d="M197.852 52.2828V0.392578H23.0787V52.2828H197.852Z" fill="white"/>
</mask>
<g mask="url(#mask0)">
<path d="M53.5437 18.3714L53.5443 18.3709C53.523 18.3445 53.4977 18.3214 53.4758 18.2961C53.1615 17.9127 52.782 17.5877 52.3414 17.3438C51.8317 17.0121 51.3333 16.7535 51.0437 16.5432C51.0268 16.5308 51.6712 17.0205 50.7737 20.0743L50.3965 21.251C50.2208 21.7733 50.1484 22.0167 50.1254 22.0971L50.1102 22.1449L47.1695 31.326L41.7506 48.2901C40.6449 51.6177 39.2551 52.0776 39.2551 52.0776C41.0305 52.5066 42.6139 52.1074 42.6835 52.0883L42.683 52.081C43.8875 51.7397 44.9361 50.8414 45.4362 49.5916C45.4384 49.591 45.4401 49.5905 45.4418 49.5905L54.2656 22.2938C54.6961 20.8974 54.3722 19.4317 53.5437 18.3714Z" fill="#00A1DF"/>
</g>
<mask id="mask1" mask-type="alpha" maskUnits="userSpaceOnUse" x="23" y="0" width="175" height="53">
<path fill-rule="evenodd" clip-rule="evenodd" d="M197.852 52.2828V0.392578H23.0787V52.2828H197.852Z" fill="white"/>
</mask>
<g mask="url(#mask1)">
<path d="M48.9668 15.0507C48.6502 14.6785 48.2686 14.3676 47.8319 14.1332C47.3345 13.8122 46.8518 13.5615 46.5695 13.3557C46.5521 13.3433 47.2139 13.8425 46.2681 16.9936L45.9504 17.9808C45.7567 18.5531 45.677 18.8202 45.6523 18.9073L42.6965 28.0851L36.0837 48.6714C35.0352 51.6482 33.8093 52.0361 33.8093 52.0361C34.2067 52.1458 34.5839 52.2087 34.9336 52.243C36.247 52.3661 37.1384 52.0732 37.1384 52.0732C38.3334 51.7337 39.3735 50.8426 39.8731 49.6035C39.9039 49.5333 46.0783 30.5357 46.0783 30.5357L49.802 19.0996C50.2326 17.7026 49.898 16.2454 49.0679 15.1856C49.0201 15.1243 48.9966 15.0856 48.9668 15.0507Z" fill="#00A1DF"/>
</g>
<mask id="mask2" mask-type="alpha" maskUnits="userSpaceOnUse" x="23" y="0" width="175" height="53">
<path fill-rule="evenodd" clip-rule="evenodd" d="M197.852 52.2828V0.392578H23.0787V52.2828H197.852Z" fill="white"/>
</mask>
<g mask="url(#mask2)">
<path d="M44.583 11.865C43.8668 10.9694 42.6173 10.4264 42.0824 10.0373C42.0801 10.0356 42.0908 10.0441 42.1087 10.0671C42.2199 10.2138 42.6072 10.9734 41.7546 13.7669C41.6822 14.003 41.603 14.2509 41.5126 14.5169C41.2219 15.3691 41.154 15.6272 41.154 15.6272L38.1886 24.8179L30.3909 49.0331C29.3974 51.7165 28.5475 52.1269 28.5475 52.1269C28.7766 52.1707 29.0538 52.2112 29.3564 52.2405L29.3513 52.2556C29.3654 52.2517 29.3783 52.2472 29.3929 52.2433C29.6213 52.2646 29.8616 52.2804 30.1119 52.2821C32.1225 52.3124 33.6392 51.3556 34.2976 49.6032C34.3026 49.5993 34.3071 49.5953 34.3122 49.5908L41.5817 27.2769L45.3312 15.7925C45.7634 14.3898 45.4272 12.9219 44.583 11.865Z" fill="#00A1DF"/>
</g>
<mask id="mask3" mask-type="alpha" maskUnits="userSpaceOnUse" x="23" y="0" width="175" height="53">
<path fill-rule="evenodd" clip-rule="evenodd" d="M197.852 52.2828V0.392578H23.0787V52.2828H197.852Z" fill="white"/>
</mask>
<g mask="url(#mask3)">
<path d="M29.87 1.17526C28.6733 0.330845 27.1763 0.189173 25.9105 0.656354C25.8376 0.676031 24.2889 1.29838 23.0787 2.72128C23.0787 2.72128 24.5224 2.25523 27.4755 4.3938C28.2046 4.92114 28.419 5.07799 28.419 5.07799L41.5126 14.5166L41.7546 13.7672C42.6072 10.9737 42.2199 10.2142 42.1088 10.0674L29.87 1.17526Z" fill="#002856"/>
</g>
<path d="M41.154 15.6265L25.5805 4.29271C24.3849 3.44942 22.8901 3.30662 21.6255 3.77155C21.6255 3.77155 20.1319 4.24886 18.8863 5.81231C18.8863 5.81231 20.1493 5.38673 22.843 7.26108L39.8792 19.5781L41.154 15.6265Z" fill="#002856"/>
<path d="M39.4628 20.8708L21.1327 7.50129C19.5004 6.34992 17.606 6.45449 15.9086 7.72897C15.4152 8.0944 14.9942 8.49131 14.7018 8.80445C14.7018 8.80445 15.6577 8.63129 18.1095 10.2678L38.1886 24.8185L39.4628 20.8708Z" fill="#002856"/>
<path d="M27.1067 52.1632L10.6031 52.1666L0 19.4825L13.5011 9.69529C13.5011 9.69529 14.5081 9.37315 16.4772 10.7983C16.9627 11.1502 17.1087 11.2571 17.1087 11.2571L26.5504 18.1827L17.3298 24.8593L21.3101 37.1291H32.795L28.9461 49.1015C27.9576 51.7506 27.1067 52.1632 27.1067 52.1632Z" fill="#002856"/>
<path fill-rule="evenodd" clip-rule="evenodd" d="M201.306 13.7392C201.306 14.9417 202.274 15.8856 203.488 15.8856C204.713 15.8856 205.656 14.9417 205.656 13.7392C205.656 12.5631 204.713 11.6191 203.488 11.6191C202.274 11.6191 201.306 12.5631 201.306 13.7392ZM201.848 13.7392C201.848 14.6831 202.545 15.433 203.5 15.433C204.43 15.433 205.114 14.6831 205.114 13.7521C205.114 12.8087 204.43 12.0458 203.488 12.0458C202.545 12.0458 201.848 12.8087 201.848 13.7392ZM202.661 14.8512H203.152V13.9978H203.384C203.655 13.9978 203.784 14.1018 203.823 14.334C203.836 14.3814 203.847 14.4269 203.858 14.47L203.858 14.47C203.904 14.6502 203.938 14.7886 203.991 14.8512H204.52C204.468 14.7736 204.43 14.6443 204.365 14.321C204.3 14.0366 204.184 13.8814 203.978 13.8044V13.778C204.236 13.7009 204.417 13.5199 204.417 13.2872C204.417 13.0803 204.326 12.9122 204.21 12.8217C204.056 12.7312 203.874 12.6665 203.474 12.6665C203.126 12.6665 202.855 12.6924 202.661 12.7312V14.8512ZM203.397 13.6492H203.165V13.0415C203.216 13.0286 203.307 13.0156 203.436 13.0156C203.746 13.0156 203.888 13.1449 203.888 13.3389C203.888 13.5587 203.668 13.6492 203.397 13.6492Z" fill="#00A1DF"/>
</svg>
