<svg width="104" height="30" viewBox="0 0 104 30" fill="none" xmlns="http://www.w3.org/2000/svg">
<g clip-path="url(#clip0_94_4952)">
<path d="M16.4177 5.6049L17.6 3.83094C17.6403 3.7741 17.6688 3.70975 17.6838 3.64169C17.6988 3.57364 17.6999 3.50328 17.6872 3.43476C17.6745 3.36624 17.6482 3.30097 17.6098 3.24281C17.5715 3.18466 17.5218 3.13479 17.4638 3.09617C17.4058 3.05755 17.3406 3.03096 17.2722 3.01797C17.2037 3.00499 17.1333 3.00588 17.0652 3.02058C16.9971 3.03529 16.9326 3.06351 16.8756 3.10358C16.8186 3.14365 16.7702 3.19475 16.7333 3.25386L15.4979 5.10803C14.7104 4.76294 13.8598 4.58478 13 4.58478C12.1402 4.58478 11.2896 4.76294 10.5021 5.10803L9.26667 3.25282C9.22976 3.19371 9.18138 3.14261 9.12437 3.10254C9.06736 3.06247 9.00289 3.03424 8.93477 3.01954C8.86666 3.00484 8.79629 3.00395 8.72783 3.01693C8.65936 3.02992 8.5942 3.05651 8.5362 3.09513C8.4782 3.13375 8.42854 3.18361 8.39016 3.24177C8.35178 3.29993 8.32546 3.3652 8.31276 3.43372C8.30006 3.50223 8.30124 3.5726 8.31622 3.64065C8.33121 3.7087 8.35969 3.77306 8.4 3.8299L9.58229 5.6049C8.71247 6.17212 7.99791 6.94739 7.50334 7.86049C7.00878 8.77358 6.74985 9.79564 6.75 10.8341H19.25C19.2502 9.79564 18.9912 8.77358 18.4967 7.86049C18.0021 6.94739 17.2875 6.17212 16.4177 5.6049ZM6.75 22.2924C6.75 22.5687 6.85975 22.8336 7.0551 23.029C7.25045 23.2243 7.5154 23.3341 7.79167 23.3341H8.83333V26.4591C8.83333 26.7353 8.94308 27.0003 9.13843 27.1956C9.33378 27.391 9.59873 27.5007 9.875 27.5007C10.1513 27.5007 10.4162 27.391 10.6116 27.1956C10.8069 27.0003 10.9167 26.7353 10.9167 26.4591V23.3341H15.0833V26.4591C15.0833 26.7353 15.1931 27.0003 15.3884 27.1956C15.5838 27.391 15.8487 27.5007 16.125 27.5007C16.4013 27.5007 16.6662 27.391 16.8616 27.1956C17.0569 27.0003 17.1667 26.7353 17.1667 26.4591V23.3341H18.2083C18.4846 23.3341 18.7496 23.2243 18.9449 23.029C19.1403 22.8336 19.25 22.5687 19.25 22.2924V11.8757H6.75V22.2924ZM4.66667 11.8757C4.3904 11.8757 4.12545 11.9855 3.9301 12.1808C3.73475 12.3762 3.625 12.6411 3.625 12.9174V18.1257C3.625 18.402 3.73475 18.667 3.9301 18.8623C4.12545 19.0577 4.3904 19.1674 4.66667 19.1674C4.94293 19.1674 5.20789 19.0577 5.40324 18.8623C5.59859 18.667 5.70833 18.402 5.70833 18.1257V12.9174C5.70833 12.6411 5.59859 12.3762 5.40324 12.1808C5.20789 11.9855 4.94293 11.8757 4.66667 11.8757ZM21.3333 11.8757C21.0571 11.8757 20.7921 11.9855 20.5968 12.1808C20.4014 12.3762 20.2917 12.6411 20.2917 12.9174V18.1257C20.2917 18.402 20.4014 18.667 20.5968 18.8623C20.7921 19.0577 21.0571 19.1674 21.3333 19.1674C21.6096 19.1674 21.8746 19.0577 22.0699 18.8623C22.2653 18.667 22.375 18.402 22.375 18.1257V12.9174C22.375 12.6411 22.2653 12.3762 22.0699 12.1808C21.8746 11.9855 21.6096 11.8757 21.3333 11.8757Z" fill="white"/>
</g>
<path d="M43.3375 7.562C43.3375 8.15233 43.244 8.6895 43.057 9.1735C42.87 9.6575 42.606 10.0718 42.265 10.4165C41.924 10.7612 41.5133 11.0288 41.033 11.2195C40.5563 11.4065 40.0283 11.5 39.449 11.5H36.5065V3.6185H39.449C40.0283 3.6185 40.5563 3.71383 41.033 3.9045C41.5133 4.0915 41.924 4.35917 42.265 4.7075C42.606 5.05217 42.87 5.4665 43.057 5.9505C43.244 6.4345 43.3375 6.97167 43.3375 7.562ZM42.243 7.562C42.243 7.078 42.177 6.64533 42.045 6.264C41.913 5.88267 41.726 5.56 41.484 5.296C41.242 5.032 40.9487 4.83033 40.604 4.691C40.2593 4.55167 39.8743 4.482 39.449 4.482H37.5735V10.6365H39.449C39.8743 10.6365 40.2593 10.5668 40.604 10.4275C40.9487 10.2882 41.242 10.0883 41.484 9.828C41.726 9.564 41.913 9.24133 42.045 8.86C42.177 8.47867 42.243 8.046 42.243 7.562ZM47.217 5.8405C47.624 5.8405 47.9906 5.90833 48.317 6.044C48.6433 6.17967 48.922 6.37217 49.153 6.6215C49.384 6.87083 49.56 7.17333 49.681 7.529C49.8056 7.881 49.868 8.27517 49.868 8.7115C49.868 9.1515 49.8056 9.5475 49.681 9.8995C49.56 10.2515 49.384 10.5522 49.153 10.8015C48.922 11.0508 48.6433 11.2433 48.317 11.379C47.9906 11.511 47.624 11.577 47.217 11.577C46.8063 11.577 46.436 11.511 46.106 11.379C45.7796 11.2433 45.501 11.0508 45.27 10.8015C45.039 10.5522 44.8611 10.2515 44.7365 9.8995C44.6155 9.5475 44.555 9.1515 44.555 8.7115C44.555 8.27517 44.6155 7.881 44.7365 7.529C44.8611 7.17333 45.039 6.87083 45.27 6.6215C45.501 6.37217 45.7796 6.17967 46.106 6.044C46.436 5.90833 46.8063 5.8405 47.217 5.8405ZM47.217 10.8125C47.767 10.8125 48.1776 10.6292 48.449 10.2625C48.7203 9.89217 48.856 9.377 48.856 8.717C48.856 8.05333 48.7203 7.53633 48.449 7.166C48.1776 6.79567 47.767 6.6105 47.217 6.6105C46.9383 6.6105 46.6945 6.65817 46.4855 6.7535C46.2801 6.84883 46.1078 6.98633 45.9685 7.166C45.8328 7.34567 45.7301 7.5675 45.6605 7.8315C45.5945 8.09183 45.5615 8.387 45.5615 8.717C45.5615 9.377 45.6971 9.89217 45.9685 10.2625C46.2435 10.6292 46.6596 10.8125 47.217 10.8125ZM59.0072 5.9285L57.2032 11.5H56.4277C56.3324 11.5 56.2664 11.4377 56.2297 11.313L54.9977 7.5345C54.9684 7.45017 54.9446 7.36583 54.9262 7.2815C54.9079 7.1935 54.8896 7.10733 54.8712 7.023C54.8529 7.10733 54.8346 7.1935 54.8162 7.2815C54.7979 7.36583 54.7741 7.452 54.7447 7.54L53.4907 11.313C53.4577 11.4377 53.3844 11.5 53.2707 11.5H52.5337L50.7297 5.9285H51.4997C51.5767 5.9285 51.6409 5.94867 51.6922 5.989C51.7472 6.02933 51.7839 6.077 51.8022 6.132L52.8692 9.718C52.9316 9.982 52.9811 10.2313 53.0177 10.466C53.0507 10.345 53.0837 10.2222 53.1167 10.0975C53.1534 9.97283 53.1919 9.84633 53.2322 9.718L54.4092 6.11C54.4276 6.055 54.4587 6.00917 54.5027 5.9725C54.5504 5.93583 54.6072 5.9175 54.6732 5.9175H55.1022C55.1756 5.9175 55.2361 5.93583 55.2837 5.9725C55.3314 6.00917 55.3644 6.055 55.3827 6.11L56.5322 9.718C56.5726 9.84633 56.6092 9.97283 56.6422 10.0975C56.6752 10.2222 56.7064 10.345 56.7357 10.466C56.7541 10.345 56.7761 10.224 56.8017 10.103C56.8311 9.97833 56.8622 9.85 56.8952 9.718L57.9842 6.132C58.0026 6.07333 58.0374 6.02567 58.0887 5.989C58.1401 5.94867 58.2006 5.9285 58.2702 5.9285H59.0072ZM61.1845 6.737C61.3055 6.60133 61.4338 6.4785 61.5695 6.3685C61.7051 6.2585 61.8481 6.165 61.9985 6.088C62.1525 6.00733 62.3138 5.94683 62.4825 5.9065C62.6548 5.8625 62.84 5.8405 63.038 5.8405C63.3423 5.8405 63.61 5.89183 63.841 5.9945C64.0756 6.0935 64.27 6.2365 64.424 6.4235C64.5816 6.60683 64.7008 6.82867 64.7815 7.089C64.8621 7.34933 64.9025 7.63717 64.9025 7.9525V11.5H63.918V7.9525C63.918 7.53083 63.8208 7.2045 63.6265 6.9735C63.4358 6.73883 63.1443 6.6215 62.752 6.6215C62.4623 6.6215 62.191 6.69117 61.938 6.8305C61.6886 6.96983 61.4576 7.15867 61.245 7.397V11.5H60.2605V5.9285H60.849C60.9883 5.9285 61.0745 5.99633 61.1075 6.132L61.1845 6.737ZM67.7063 3.3985V11.5H66.7273V3.3985H67.7063ZM71.9424 5.8405C72.3494 5.8405 72.716 5.90833 73.0424 6.044C73.3687 6.17967 73.6474 6.37217 73.8784 6.6215C74.1094 6.87083 74.2854 7.17333 74.4064 7.529C74.531 7.881 74.5934 8.27517 74.5934 8.7115C74.5934 9.1515 74.531 9.5475 74.4064 9.8995C74.2854 10.2515 74.1094 10.5522 73.8784 10.8015C73.6474 11.0508 73.3687 11.2433 73.0424 11.379C72.716 11.511 72.3494 11.577 71.9424 11.577C71.5317 11.577 71.1614 11.511 70.8314 11.379C70.505 11.2433 70.2264 11.0508 69.9954 10.8015C69.7644 10.5522 69.5865 10.2515 69.4619 9.8995C69.3409 9.5475 69.2804 9.1515 69.2804 8.7115C69.2804 8.27517 69.3409 7.881 69.4619 7.529C69.5865 7.17333 69.7644 6.87083 69.9954 6.6215C70.2264 6.37217 70.505 6.17967 70.8314 6.044C71.1614 5.90833 71.5317 5.8405 71.9424 5.8405ZM71.9424 10.8125C72.4924 10.8125 72.903 10.6292 73.1744 10.2625C73.4457 9.89217 73.5814 9.377 73.5814 8.717C73.5814 8.05333 73.4457 7.53633 73.1744 7.166C72.903 6.79567 72.4924 6.6105 71.9424 6.6105C71.6637 6.6105 71.4199 6.65817 71.2109 6.7535C71.0055 6.84883 70.8332 6.98633 70.6939 7.166C70.5582 7.34567 70.4555 7.5675 70.3859 7.8315C70.3199 8.09183 70.2869 8.387 70.2869 8.717C70.2869 9.377 70.4225 9.89217 70.6939 10.2625C70.9689 10.6292 71.385 10.8125 71.9424 10.8125ZM79.1546 8.992C78.7036 9.00667 78.3186 9.04333 77.9996 9.102C77.6842 9.157 77.4257 9.23033 77.2241 9.322C77.0261 9.41367 76.8812 9.52183 76.7896 9.6465C76.7016 9.77117 76.6576 9.9105 76.6576 10.0645C76.6576 10.2112 76.6814 10.3377 76.7291 10.444C76.7767 10.5503 76.8409 10.6383 76.9216 10.708C77.0059 10.774 77.1031 10.8235 77.2131 10.8565C77.3267 10.8858 77.4477 10.9005 77.5761 10.9005C77.7484 10.9005 77.9061 10.884 78.0491 10.851C78.1921 10.8143 78.3259 10.763 78.4506 10.697C78.5789 10.631 78.6999 10.5522 78.8136 10.4605C78.9309 10.3688 79.0446 10.2643 79.1546 10.147V8.992ZM75.9921 6.715C76.3001 6.418 76.6319 6.19617 76.9876 6.0495C77.3432 5.90283 77.7374 5.8295 78.1701 5.8295C78.4817 5.8295 78.7586 5.88083 79.0006 5.9835C79.2426 6.08617 79.4461 6.22917 79.6111 6.4125C79.7761 6.59583 79.9007 6.81767 79.9851 7.078C80.0694 7.33833 80.1116 7.62433 80.1116 7.936V11.5H79.6771C79.5817 11.5 79.5084 11.4853 79.4571 11.456C79.4057 11.423 79.3654 11.3607 79.3361 11.269L79.2261 10.741C79.0794 10.8767 78.9364 10.9977 78.7971 11.104C78.6577 11.2067 78.5111 11.2947 78.3571 11.368C78.2031 11.4377 78.0381 11.4908 77.8621 11.5275C77.6897 11.5678 77.4972 11.588 77.2846 11.588C77.0682 11.588 76.8647 11.5587 76.6741 11.5C76.4834 11.4377 76.3166 11.346 76.1736 11.225C76.0342 11.104 75.9224 10.9518 75.8381 10.7685C75.7574 10.5815 75.7171 10.3615 75.7171 10.1085C75.7171 9.8885 75.7776 9.67767 75.8986 9.476C76.0196 9.27067 76.2157 9.08917 76.4871 8.9315C76.7584 8.77383 77.1122 8.6455 77.5486 8.5465C77.9849 8.44383 78.5202 8.38517 79.1546 8.3705V7.936C79.1546 7.50333 79.0611 7.177 78.8741 6.957C78.6871 6.73333 78.4139 6.6215 78.0546 6.6215C77.8126 6.6215 77.6091 6.65267 77.4441 6.715C77.2827 6.77367 77.1416 6.8415 77.0206 6.9185C76.9032 6.99183 76.8006 7.05967 76.7126 7.122C76.6282 7.18067 76.5439 7.21 76.4596 7.21C76.3936 7.21 76.3367 7.1935 76.2891 7.1605C76.2414 7.12383 76.2011 7.07983 76.1681 7.0285L75.9921 6.715ZM85.5328 7.254C85.3495 7.00833 85.1515 6.83783 84.9388 6.7425C84.7262 6.6435 84.4878 6.594 84.2238 6.594C83.7068 6.594 83.309 6.77917 83.0303 7.1495C82.7517 7.51983 82.6123 8.04783 82.6123 8.7335C82.6123 9.0965 82.6435 9.40817 82.7058 9.6685C82.7682 9.92517 82.8598 10.1378 82.9808 10.3065C83.1018 10.4715 83.2503 10.5925 83.4263 10.6695C83.6023 10.7465 83.8022 10.785 84.0258 10.785C84.3485 10.785 84.629 10.7117 84.8673 10.565C85.1093 10.4183 85.3312 10.2112 85.5328 9.9435V7.254ZM86.5118 3.3985V11.5H85.9288C85.7895 11.5 85.7015 11.4322 85.6648 11.2965L85.5768 10.62C85.3385 10.906 85.0672 11.137 84.7628 11.313C84.4585 11.489 84.1065 11.577 83.7068 11.577C83.3878 11.577 83.0982 11.5165 82.8378 11.3955C82.5775 11.2708 82.3557 11.0893 82.1723 10.851C81.989 10.6127 81.8478 10.3157 81.7488 9.96C81.6498 9.60433 81.6003 9.1955 81.6003 8.7335C81.6003 8.32283 81.6553 7.9415 81.7653 7.5895C81.8753 7.23383 82.033 6.92583 82.2383 6.6655C82.4437 6.40517 82.6948 6.20167 82.9918 6.055C83.2925 5.90467 83.6298 5.8295 84.0038 5.8295C84.3448 5.8295 84.6363 5.88817 84.8783 6.0055C85.124 6.11917 85.3422 6.27867 85.5328 6.484V3.3985H86.5118ZM93.8211 5.8405C94.2281 5.8405 94.5947 5.90833 94.9211 6.044C95.2474 6.17967 95.5261 6.37217 95.7571 6.6215C95.9881 6.87083 96.1641 7.17333 96.2851 7.529C96.4097 7.881 96.4721 8.27517 96.4721 8.7115C96.4721 9.1515 96.4097 9.5475 96.2851 9.8995C96.1641 10.2515 95.9881 10.5522 95.7571 10.8015C95.5261 11.0508 95.2474 11.2433 94.9211 11.379C94.5947 11.511 94.2281 11.577 93.8211 11.577C93.4104 11.577 93.0401 11.511 92.7101 11.379C92.3837 11.2433 92.1051 11.0508 91.8741 10.8015C91.6431 10.5522 91.4652 10.2515 91.3406 9.8995C91.2196 9.5475 91.1591 9.1515 91.1591 8.7115C91.1591 8.27517 91.2196 7.881 91.3406 7.529C91.4652 7.17333 91.6431 6.87083 91.8741 6.6215C92.1051 6.37217 92.3837 6.17967 92.7101 6.044C93.0401 5.90833 93.4104 5.8405 93.8211 5.8405ZM93.8211 10.8125C94.3711 10.8125 94.7817 10.6292 95.0531 10.2625C95.3244 9.89217 95.4601 9.377 95.4601 8.717C95.4601 8.05333 95.3244 7.53633 95.0531 7.166C94.7817 6.79567 94.3711 6.6105 93.8211 6.6105C93.5424 6.6105 93.2986 6.65817 93.0896 6.7535C92.8842 6.84883 92.7119 6.98633 92.5726 7.166C92.4369 7.34567 92.3342 7.5675 92.2646 7.8315C92.1986 8.09183 92.1656 8.387 92.1656 8.717C92.1656 9.377 92.3012 9.89217 92.5726 10.2625C92.8476 10.6292 93.2637 10.8125 93.8211 10.8125ZM98.9378 6.737C99.0588 6.60133 99.1871 6.4785 99.3228 6.3685C99.4584 6.2585 99.6014 6.165 99.7518 6.088C99.9058 6.00733 100.067 5.94683 100.236 5.9065C100.408 5.8625 100.593 5.8405 100.791 5.8405C101.096 5.8405 101.363 5.89183 101.594 5.9945C101.829 6.0935 102.023 6.2365 102.177 6.4235C102.335 6.60683 102.454 6.82867 102.535 7.089C102.615 7.34933 102.656 7.63717 102.656 7.9525V11.5H101.671V7.9525C101.671 7.53083 101.574 7.2045 101.38 6.9735C101.189 6.73883 100.898 6.6215 100.505 6.6215C100.216 6.6215 99.9443 6.69117 99.6913 6.8305C99.4419 6.96983 99.2109 7.15867 98.9983 7.397V11.5H98.0138V5.9285H98.6023C98.7416 5.9285 98.8278 5.99633 98.8608 6.132L98.9378 6.737ZM42.9085 22.7105V25.7355C42.5125 26.0215 42.089 26.236 41.638 26.379C41.1907 26.5183 40.6993 26.588 40.164 26.588C39.5297 26.588 38.9577 26.4908 38.448 26.2965C37.9383 26.0985 37.502 25.8235 37.139 25.4715C36.7797 25.1158 36.5028 24.6905 36.3085 24.1955C36.1142 23.7005 36.017 23.156 36.017 22.562C36.017 21.9607 36.1105 21.4125 36.2975 20.9175C36.4882 20.4225 36.7577 19.999 37.106 19.647C37.4543 19.2913 37.8778 19.0163 38.3765 18.822C38.8752 18.6277 39.4325 18.5305 40.0485 18.5305C40.3602 18.5305 40.6498 18.5543 40.9175 18.602C41.1852 18.646 41.4327 18.712 41.66 18.8C41.8873 18.8843 42.0982 18.9888 42.2925 19.1135C42.4868 19.2345 42.6683 19.372 42.837 19.526L42.5345 20.01C42.4868 20.0833 42.4245 20.131 42.3475 20.153C42.2742 20.1713 42.1917 20.153 42.1 20.098C42.012 20.0467 41.9112 19.9843 41.7975 19.911C41.6838 19.8377 41.5445 19.768 41.3795 19.702C41.2182 19.6323 41.0257 19.5737 40.802 19.526C40.582 19.4783 40.3198 19.4545 40.0155 19.4545C39.5718 19.4545 39.1703 19.5278 38.811 19.6745C38.4517 19.8175 38.1455 20.0247 37.8925 20.296C37.6395 20.5637 37.4452 20.89 37.3095 21.275C37.1738 21.6563 37.106 22.0853 37.106 22.562C37.106 23.057 37.1757 23.5007 37.315 23.893C37.458 24.2817 37.6597 24.6135 37.92 24.8885C38.184 25.1598 38.503 25.367 38.877 25.51C39.251 25.653 39.6708 25.7245 40.1365 25.7245C40.5032 25.7245 40.8277 25.6842 41.11 25.6035C41.396 25.5192 41.6747 25.4037 41.946 25.257V23.5245H40.7195C40.6498 23.5245 40.593 23.5043 40.549 23.464C40.5087 23.4237 40.4885 23.3742 40.4885 23.3155V22.7105H42.9085ZM46.8947 20.8405C47.3017 20.8405 47.6684 20.9083 47.9947 21.044C48.321 21.1797 48.5997 21.3722 48.8307 21.6215C49.0617 21.8708 49.2377 22.1733 49.3587 22.529C49.4834 22.881 49.5457 23.2752 49.5457 23.7115C49.5457 24.1515 49.4834 24.5475 49.3587 24.8995C49.2377 25.2515 49.0617 25.5522 48.8307 25.8015C48.5997 26.0508 48.321 26.2433 47.9947 26.379C47.6684 26.511 47.3017 26.577 46.8947 26.577C46.484 26.577 46.1137 26.511 45.7837 26.379C45.4574 26.2433 45.1787 26.0508 44.9477 25.8015C44.7167 25.5522 44.5389 25.2515 44.4142 24.8995C44.2932 24.5475 44.2327 24.1515 44.2327 23.7115C44.2327 23.2752 44.2932 22.881 44.4142 22.529C44.5389 22.1733 44.7167 21.8708 44.9477 21.6215C45.1787 21.3722 45.4574 21.1797 45.7837 21.044C46.1137 20.9083 46.484 20.8405 46.8947 20.8405ZM46.8947 25.8125C47.4447 25.8125 47.8554 25.6292 48.1267 25.2625C48.398 24.8922 48.5337 24.377 48.5337 23.717C48.5337 23.0533 48.398 22.5363 48.1267 22.166C47.8554 21.7957 47.4447 21.6105 46.8947 21.6105C46.616 21.6105 46.3722 21.6582 46.1632 21.7535C45.9579 21.8488 45.7855 21.9863 45.6462 22.166C45.5105 22.3457 45.4079 22.5675 45.3382 22.8315C45.2722 23.0918 45.2392 23.387 45.2392 23.717C45.2392 24.377 45.3749 24.8922 45.6462 25.2625C45.9212 25.6292 46.3374 25.8125 46.8947 25.8125ZM53.4359 20.8405C53.8429 20.8405 54.2096 20.9083 54.5359 21.044C54.8622 21.1797 55.1409 21.3722 55.3719 21.6215C55.6029 21.8708 55.7789 22.1733 55.8999 22.529C56.0246 22.881 56.0869 23.2752 56.0869 23.7115C56.0869 24.1515 56.0246 24.5475 55.8999 24.8995C55.7789 25.2515 55.6029 25.5522 55.3719 25.8015C55.1409 26.0508 54.8622 26.2433 54.5359 26.379C54.2096 26.511 53.8429 26.577 53.4359 26.577C53.0252 26.577 52.6549 26.511 52.3249 26.379C51.9986 26.2433 51.7199 26.0508 51.4889 25.8015C51.2579 25.5522 51.0801 25.2515 50.9554 24.8995C50.8344 24.5475 50.7739 24.1515 50.7739 23.7115C50.7739 23.2752 50.8344 22.881 50.9554 22.529C51.0801 22.1733 51.2579 21.8708 51.4889 21.6215C51.7199 21.3722 51.9986 21.1797 52.3249 21.044C52.6549 20.9083 53.0252 20.8405 53.4359 20.8405ZM53.4359 25.8125C53.9859 25.8125 54.3966 25.6292 54.6679 25.2625C54.9392 24.8922 55.0749 24.377 55.0749 23.717C55.0749 23.0533 54.9392 22.5363 54.6679 22.166C54.3966 21.7957 53.9859 21.6105 53.4359 21.6105C53.1572 21.6105 52.9134 21.6582 52.7044 21.7535C52.4991 21.8488 52.3267 21.9863 52.1874 22.166C52.0517 22.3457 51.9491 22.5675 51.8794 22.8315C51.8134 23.0918 51.7804 23.387 51.7804 23.717C51.7804 24.377 51.9161 24.8922 52.1874 25.2625C52.4624 25.6292 52.8786 25.8125 53.4359 25.8125ZM59.5379 23.7775C59.7359 23.7775 59.9101 23.75 60.0604 23.695C60.2107 23.64 60.3372 23.563 60.4399 23.464C60.5426 23.365 60.6196 23.2477 60.6709 23.112C60.7222 22.9727 60.7479 22.8205 60.7479 22.6555C60.7479 22.3145 60.6434 22.0432 60.4344 21.8415C60.2291 21.6398 59.9302 21.539 59.5379 21.539C59.1419 21.539 58.8394 21.6398 58.6304 21.8415C58.4251 22.0432 58.3224 22.3145 58.3224 22.6555C58.3224 22.8205 58.3481 22.9727 58.3994 23.112C58.4544 23.2477 58.5332 23.365 58.6359 23.464C58.7386 23.563 58.8651 23.64 59.0154 23.695C59.1657 23.75 59.3399 23.7775 59.5379 23.7775ZM61.3034 26.8025C61.3034 26.6668 61.2649 26.5568 61.1879 26.4725C61.1109 26.3882 61.0064 26.3222 60.8744 26.2745C60.7461 26.2268 60.5957 26.1938 60.4234 26.1755C60.2511 26.1535 60.0677 26.137 59.8734 26.126C59.6827 26.115 59.4884 26.104 59.2904 26.093C59.0924 26.082 58.9017 26.0637 58.7184 26.038C58.5131 26.1333 58.3444 26.2543 58.2124 26.401C58.0841 26.544 58.0199 26.7127 58.0199 26.907C58.0199 27.0317 58.0511 27.1472 58.1134 27.2535C58.1794 27.3635 58.2784 27.457 58.4104 27.534C58.5424 27.6147 58.7074 27.677 58.9054 27.721C59.1071 27.7687 59.3436 27.7925 59.6149 27.7925C59.8789 27.7925 60.1154 27.7687 60.3244 27.721C60.5334 27.6733 60.7094 27.6055 60.8524 27.5175C60.9991 27.4295 61.1109 27.325 61.1879 27.204C61.2649 27.083 61.3034 26.9492 61.3034 26.8025ZM62.2989 21.1485V21.5115C62.2989 21.6325 62.2219 21.7095 62.0679 21.7425L61.4354 21.825C61.5601 22.067 61.6224 22.3347 61.6224 22.628C61.6224 22.8993 61.5692 23.1468 61.4629 23.3705C61.3602 23.5905 61.2172 23.7793 61.0339 23.937C60.8506 24.0947 60.6306 24.2157 60.3739 24.3C60.1172 24.3843 59.8386 24.4265 59.5379 24.4265C59.2776 24.4265 59.0319 24.3953 58.8009 24.333C58.6836 24.4063 58.5937 24.4852 58.5314 24.5695C58.4691 24.6502 58.4379 24.7327 58.4379 24.817C58.4379 24.949 58.4911 25.0498 58.5974 25.1195C58.7074 25.1855 58.8504 25.2332 59.0264 25.2625C59.2024 25.2918 59.4022 25.3102 59.6259 25.3175C59.8532 25.3248 60.0842 25.3377 60.3189 25.356C60.5572 25.3707 60.7882 25.3982 61.0119 25.4385C61.2392 25.4788 61.4409 25.5448 61.6169 25.6365C61.7929 25.7282 61.9341 25.8547 62.0404 26.016C62.1504 26.1773 62.2054 26.3863 62.2054 26.643C62.2054 26.8813 62.1449 27.1123 62.0239 27.336C61.9066 27.5597 61.7361 27.7577 61.5124 27.93C61.2887 28.106 61.0137 28.2453 60.6874 28.348C60.3647 28.4543 59.9999 28.5075 59.5929 28.5075C59.1859 28.5075 58.8302 28.4672 58.5259 28.3865C58.2216 28.3058 57.9686 28.1977 57.7669 28.062C57.5652 27.9263 57.4131 27.7687 57.3104 27.589C57.2114 27.413 57.1619 27.2278 57.1619 27.0335C57.1619 26.7585 57.2481 26.5257 57.4204 26.335C57.5927 26.1443 57.8292 25.9922 58.1299 25.8785C57.9649 25.8052 57.8329 25.708 57.7339 25.587C57.6386 25.4623 57.5909 25.2955 57.5909 25.0865C57.5909 25.0058 57.6056 24.9233 57.6349 24.839C57.6642 24.751 57.7082 24.6648 57.7669 24.5805C57.8292 24.4925 57.9044 24.41 57.9924 24.333C58.0804 24.256 58.1831 24.1882 58.3004 24.1295C58.0254 23.9755 57.8109 23.772 57.6569 23.519C57.5029 23.2623 57.4259 22.9653 57.4259 22.628C57.4259 22.3567 57.4772 22.111 57.5799 21.891C57.6862 21.6673 57.8329 21.4785 58.0199 21.3245C58.2069 21.1668 58.4287 21.0458 58.6854 20.9615C58.9457 20.8772 59.2299 20.835 59.5379 20.835C59.7799 20.835 60.0054 20.8625 60.2144 20.9175C60.4234 20.9688 60.6141 21.0458 60.7864 21.1485H62.2989ZM64.6232 18.3985V26.5H63.6442V18.3985H64.6232ZM70.2399 23.1065C70.2399 22.8792 70.2069 22.672 70.1409 22.485C70.0785 22.2943 69.985 22.1312 69.8604 21.9955C69.7394 21.8562 69.5909 21.7498 69.4149 21.6765C69.2389 21.5995 69.039 21.561 68.8154 21.561C68.346 21.561 67.9739 21.6985 67.6989 21.9735C67.4275 22.2448 67.2589 22.6225 67.1929 23.1065H70.2399ZM71.0319 25.719C70.9109 25.8657 70.766 25.994 70.5974 26.104C70.4287 26.2103 70.2472 26.2983 70.0529 26.368C69.8622 26.4377 69.6642 26.489 69.4589 26.522C69.2535 26.5587 69.05 26.577 68.8484 26.577C68.4634 26.577 68.1077 26.5128 67.7814 26.3845C67.4587 26.2525 67.1782 26.0618 66.9399 25.8125C66.7052 25.5595 66.5219 25.2478 66.3899 24.8775C66.2579 24.5072 66.1919 24.0818 66.1919 23.6015C66.1919 23.2128 66.2505 22.8498 66.3679 22.5125C66.4889 22.1752 66.6612 21.8837 66.8849 21.638C67.1085 21.3887 67.3817 21.1943 67.7044 21.055C68.027 20.912 68.39 20.8405 68.7934 20.8405C69.127 20.8405 69.435 20.8973 69.7174 21.011C70.0034 21.121 70.249 21.2823 70.4544 21.495C70.6634 21.704 70.8265 21.9643 70.9439 22.276C71.0612 22.584 71.1199 22.936 71.1199 23.332C71.1199 23.486 71.1034 23.5887 71.0704 23.64C71.0374 23.6913 70.975 23.717 70.8834 23.717H67.1599C67.1709 24.069 67.2185 24.3752 67.3029 24.6355C67.3909 24.8958 67.5119 25.114 67.6659 25.29C67.8199 25.4623 68.0032 25.5925 68.2159 25.6805C68.4285 25.7648 68.6669 25.807 68.9309 25.807C69.1765 25.807 69.3874 25.7795 69.5634 25.7245C69.743 25.6658 69.897 25.6035 70.0254 25.5375C70.1537 25.4715 70.26 25.411 70.3444 25.356C70.4324 25.2973 70.5075 25.268 70.5699 25.268C70.6505 25.268 70.7129 25.2992 70.7569 25.3615L71.0319 25.719ZM78.2943 22.705C78.5987 22.705 78.8663 22.6647 79.0973 22.584C79.332 22.5033 79.5282 22.3915 79.6858 22.2485C79.8472 22.1018 79.9682 21.9277 80.0488 21.726C80.1295 21.5243 80.1698 21.3025 80.1698 21.0605C80.1698 20.5582 80.014 20.1658 79.7023 19.8835C79.3943 19.6012 78.925 19.46 78.2943 19.46H77.0293V22.705H78.2943ZM78.2943 18.6185C78.793 18.6185 79.2257 18.6772 79.5923 18.7945C79.9627 18.9082 80.2688 19.0713 80.5108 19.284C80.7528 19.4967 80.9325 19.7533 81.0498 20.054C81.1708 20.3547 81.2313 20.6902 81.2313 21.0605C81.2313 21.4272 81.1672 21.7627 81.0388 22.067C80.9105 22.3713 80.7217 22.6335 80.4723 22.8535C80.2267 23.0735 79.9205 23.2458 79.5538 23.3705C79.1908 23.4915 78.771 23.552 78.2943 23.552H77.0293V26.5H75.9678V18.6185H78.2943ZM83.623 18.3985V26.5H82.644V18.3985H83.623ZM88.5302 23.992C88.0792 24.0067 87.6942 24.0433 87.3752 24.102C87.0598 24.157 86.8013 24.2303 86.5997 24.322C86.4017 24.4137 86.2568 24.5218 86.1652 24.6465C86.0772 24.7712 86.0332 24.9105 86.0332 25.0645C86.0332 25.2112 86.057 25.3377 86.1047 25.444C86.1523 25.5503 86.2165 25.6383 86.2972 25.708C86.3815 25.774 86.4787 25.8235 86.5887 25.8565C86.7023 25.8858 86.8233 25.9005 86.9517 25.9005C87.124 25.9005 87.2817 25.884 87.4247 25.851C87.5677 25.8143 87.7015 25.763 87.8262 25.697C87.9545 25.631 88.0755 25.5522 88.1892 25.4605C88.3065 25.3688 88.4202 25.2643 88.5302 25.147V23.992ZM85.3677 21.715C85.6757 21.418 86.0075 21.1962 86.3632 21.0495C86.7188 20.9028 87.113 20.8295 87.5457 20.8295C87.8573 20.8295 88.1342 20.8808 88.3762 20.9835C88.6182 21.0862 88.8217 21.2292 88.9867 21.4125C89.1517 21.5958 89.2763 21.8177 89.3607 22.078C89.445 22.3383 89.4872 22.6243 89.4872 22.936V26.5H89.0527C88.9573 26.5 88.884 26.4853 88.8327 26.456C88.7813 26.423 88.741 26.3607 88.7117 26.269L88.6017 25.741C88.455 25.8767 88.312 25.9977 88.1727 26.104C88.0333 26.2067 87.8867 26.2947 87.7327 26.368C87.5787 26.4377 87.4137 26.4908 87.2377 26.5275C87.0653 26.5678 86.8728 26.588 86.6602 26.588C86.4438 26.588 86.2403 26.5587 86.0497 26.5C85.859 26.4377 85.6922 26.346 85.5492 26.225C85.4098 26.104 85.298 25.9518 85.2137 25.7685C85.133 25.5815 85.0927 25.3615 85.0927 25.1085C85.0927 24.8885 85.1532 24.6777 85.2742 24.476C85.3952 24.2707 85.5913 24.0892 85.8627 23.9315C86.134 23.7738 86.4878 23.6455 86.9242 23.5465C87.3605 23.4438 87.8958 23.3852 88.5302 23.3705V22.936C88.5302 22.5033 88.4367 22.177 88.2497 21.957C88.0627 21.7333 87.7895 21.6215 87.4302 21.6215C87.1882 21.6215 86.9847 21.6527 86.8197 21.715C86.6583 21.7737 86.5172 21.8415 86.3962 21.9185C86.2788 21.9918 86.1762 22.0597 86.0882 22.122C86.0038 22.1807 85.9195 22.21 85.8352 22.21C85.7692 22.21 85.7123 22.1935 85.6647 22.1605C85.617 22.1238 85.5767 22.0798 85.5437 22.0285L85.3677 21.715ZM95.9565 20.9285L92.849 28.1445C92.816 28.2178 92.7739 28.2765 92.7225 28.3205C92.6749 28.3645 92.5997 28.3865 92.497 28.3865H91.771L92.7885 26.1755L90.4895 20.9285H91.3365C91.4209 20.9285 91.4869 20.9505 91.5345 20.9945C91.5859 21.0348 91.6207 21.0807 91.639 21.132L93.1295 24.641C93.1882 24.795 93.2377 24.9563 93.278 25.125C93.3294 24.9527 93.3844 24.7895 93.443 24.6355L94.8895 21.132C94.9115 21.0733 94.9482 21.0257 94.9995 20.989C95.0545 20.9487 95.115 20.9285 95.181 20.9285H95.9565Z" fill="white"/>
<defs>
<clipPath id="clip0_94_4952">
<rect width="25" height="25" fill="white" transform="translate(0.5 2.5)"/>
</clipPath>
</defs>
</svg>
