<svg width="146" height="29" viewBox="0 0 146 29" fill="none" xmlns="http://www.w3.org/2000/svg">
<path d="M22.7447 19.1742C21.351 18.6471 20.4187 17.3815 20.3135 15.8721C20.2103 14.4013 20.9312 13.0951 22.2416 12.3773L23.3312 11.7805L22.553 10.8117C21.2458 9.18359 19.3749 8.21068 17.5489 8.21068C16.2833 8.21068 15.4051 8.54193 14.6999 8.80859C14.202 8.99609 13.8093 9.14505 13.378 9.14505C12.8864 9.14505 12.401 8.97214 11.8385 8.77214C11.101 8.50963 10.2655 8.21172 9.19263 8.21172C7.11971 8.21172 5.02909 9.44922 3.73742 11.4388C1.8093 14.4065 2.33846 19.4951 4.99575 23.5388C6.04888 25.1409 7.52492 26.9815 9.61554 27.0003H9.65617C11.3676 27.0003 11.7426 26.0878 13.4041 26.0773C15.2187 26.1628 15.4478 27.0076 17.1426 26.9961C19.1853 26.9773 20.6583 25.1513 21.8291 23.3669C22.5208 22.318 22.7885 21.769 23.327 20.5773L23.7833 19.5669L22.7447 19.1742ZM16.2301 5.59401C16.9072 4.72526 17.4208 3.50026 17.2343 2.24609C16.128 2.32214 14.8364 3.02526 14.0812 3.94193C13.3958 4.77526 12.8301 6.00755 13.0499 7.20755C14.2562 7.24505 15.5051 6.52422 16.2301 5.59401Z" fill="white"/>
<path d="M43.3375 7.062C43.3375 7.65233 43.244 8.1895 43.057 8.6735C42.87 9.1575 42.606 9.57183 42.265 9.9165C41.924 10.2612 41.5133 10.5288 41.033 10.7195C40.5563 10.9065 40.0283 11 39.449 11H36.5065V3.1185H39.449C40.0283 3.1185 40.5563 3.21383 41.033 3.4045C41.5133 3.5915 41.924 3.85917 42.265 4.2075C42.606 4.55217 42.87 4.9665 43.057 5.4505C43.244 5.9345 43.3375 6.47167 43.3375 7.062ZM42.243 7.062C42.243 6.578 42.177 6.14533 42.045 5.764C41.913 5.38267 41.726 5.06 41.484 4.796C41.242 4.532 40.9487 4.33033 40.604 4.191C40.2593 4.05167 39.8743 3.982 39.449 3.982H37.5735V10.1365H39.449C39.8743 10.1365 40.2593 10.0668 40.604 9.9275C40.9487 9.78817 41.242 9.58833 41.484 9.328C41.726 9.064 41.913 8.74133 42.045 8.36C42.177 7.97867 42.243 7.546 42.243 7.062ZM47.217 5.3405C47.624 5.3405 47.9906 5.40833 48.317 5.544C48.6433 5.67967 48.922 5.87217 49.153 6.1215C49.384 6.37083 49.56 6.67333 49.681 7.029C49.8056 7.381 49.868 7.77517 49.868 8.2115C49.868 8.6515 49.8056 9.0475 49.681 9.3995C49.56 9.7515 49.384 10.0522 49.153 10.3015C48.922 10.5508 48.6433 10.7433 48.317 10.879C47.9906 11.011 47.624 11.077 47.217 11.077C46.8063 11.077 46.436 11.011 46.106 10.879C45.7796 10.7433 45.501 10.5508 45.27 10.3015C45.039 10.0522 44.8611 9.7515 44.7365 9.3995C44.6155 9.0475 44.555 8.6515 44.555 8.2115C44.555 7.77517 44.6155 7.381 44.7365 7.029C44.8611 6.67333 45.039 6.37083 45.27 6.1215C45.501 5.87217 45.7796 5.67967 46.106 5.544C46.436 5.40833 46.8063 5.3405 47.217 5.3405ZM47.217 10.3125C47.767 10.3125 48.1776 10.1292 48.449 9.7625C48.7203 9.39217 48.856 8.877 48.856 8.217C48.856 7.55333 48.7203 7.03633 48.449 6.666C48.1776 6.29567 47.767 6.1105 47.217 6.1105C46.9383 6.1105 46.6945 6.15817 46.4855 6.2535C46.2801 6.34883 46.1078 6.48633 45.9685 6.666C45.8328 6.84567 45.7301 7.0675 45.6605 7.3315C45.5945 7.59183 45.5615 7.887 45.5615 8.217C45.5615 8.877 45.6971 9.39217 45.9685 9.7625C46.2435 10.1292 46.6596 10.3125 47.217 10.3125ZM59.0072 5.4285L57.2032 11H56.4277C56.3324 11 56.2664 10.9377 56.2297 10.813L54.9977 7.0345C54.9684 6.95017 54.9446 6.86583 54.9262 6.7815C54.9079 6.6935 54.8896 6.60733 54.8712 6.523C54.8529 6.60733 54.8346 6.6935 54.8162 6.7815C54.7979 6.86583 54.7741 6.952 54.7447 7.04L53.4907 10.813C53.4577 10.9377 53.3844 11 53.2707 11H52.5337L50.7297 5.4285H51.4997C51.5767 5.4285 51.6409 5.44867 51.6922 5.489C51.7472 5.52933 51.7839 5.577 51.8022 5.632L52.8692 9.218C52.9316 9.482 52.9811 9.73133 53.0177 9.966C53.0507 9.845 53.0837 9.72217 53.1167 9.5975C53.1534 9.47283 53.1919 9.34633 53.2322 9.218L54.4092 5.61C54.4276 5.555 54.4587 5.50917 54.5027 5.4725C54.5504 5.43583 54.6072 5.4175 54.6732 5.4175H55.1022C55.1756 5.4175 55.2361 5.43583 55.2837 5.4725C55.3314 5.50917 55.3644 5.555 55.3827 5.61L56.5322 9.218C56.5726 9.34633 56.6092 9.47283 56.6422 9.5975C56.6752 9.72217 56.7064 9.845 56.7357 9.966C56.7541 9.845 56.7761 9.724 56.8017 9.603C56.8311 9.47833 56.8622 9.35 56.8952 9.218L57.9842 5.632C58.0026 5.57333 58.0374 5.52567 58.0887 5.489C58.1401 5.44867 58.2006 5.4285 58.2702 5.4285H59.0072ZM61.1845 6.237C61.3055 6.10133 61.4338 5.9785 61.5695 5.8685C61.7051 5.7585 61.8481 5.665 61.9985 5.588C62.1525 5.50733 62.3138 5.44683 62.4825 5.4065C62.6548 5.3625 62.84 5.3405 63.038 5.3405C63.3423 5.3405 63.61 5.39183 63.841 5.4945C64.0756 5.5935 64.27 5.7365 64.424 5.9235C64.5816 6.10683 64.7008 6.32867 64.7815 6.589C64.8621 6.84933 64.9025 7.13717 64.9025 7.4525V11H63.918V7.4525C63.918 7.03083 63.8208 6.7045 63.6265 6.4735C63.4358 6.23883 63.1443 6.1215 62.752 6.1215C62.4623 6.1215 62.191 6.19117 61.938 6.3305C61.6886 6.46983 61.4576 6.65867 61.245 6.897V11H60.2605V5.4285H60.849C60.9883 5.4285 61.0745 5.49633 61.1075 5.632L61.1845 6.237ZM67.7063 2.8985V11H66.7273V2.8985H67.7063ZM71.9424 5.3405C72.3494 5.3405 72.716 5.40833 73.0424 5.544C73.3687 5.67967 73.6474 5.87217 73.8784 6.1215C74.1094 6.37083 74.2854 6.67333 74.4064 7.029C74.531 7.381 74.5934 7.77517 74.5934 8.2115C74.5934 8.6515 74.531 9.0475 74.4064 9.3995C74.2854 9.7515 74.1094 10.0522 73.8784 10.3015C73.6474 10.5508 73.3687 10.7433 73.0424 10.879C72.716 11.011 72.3494 11.077 71.9424 11.077C71.5317 11.077 71.1614 11.011 70.8314 10.879C70.505 10.7433 70.2264 10.5508 69.9954 10.3015C69.7644 10.0522 69.5865 9.7515 69.4619 9.3995C69.3409 9.0475 69.2804 8.6515 69.2804 8.2115C69.2804 7.77517 69.3409 7.381 69.4619 7.029C69.5865 6.67333 69.7644 6.37083 69.9954 6.1215C70.2264 5.87217 70.505 5.67967 70.8314 5.544C71.1614 5.40833 71.5317 5.3405 71.9424 5.3405ZM71.9424 10.3125C72.4924 10.3125 72.903 10.1292 73.1744 9.7625C73.4457 9.39217 73.5814 8.877 73.5814 8.217C73.5814 7.55333 73.4457 7.03633 73.1744 6.666C72.903 6.29567 72.4924 6.1105 71.9424 6.1105C71.6637 6.1105 71.4199 6.15817 71.2109 6.2535C71.0055 6.34883 70.8332 6.48633 70.6939 6.666C70.5582 6.84567 70.4555 7.0675 70.3859 7.3315C70.3199 7.59183 70.2869 7.887 70.2869 8.217C70.2869 8.877 70.4225 9.39217 70.6939 9.7625C70.9689 10.1292 71.385 10.3125 71.9424 10.3125ZM79.1546 8.492C78.7036 8.50667 78.3186 8.54333 77.9996 8.602C77.6842 8.657 77.4257 8.73033 77.2241 8.822C77.0261 8.91367 76.8812 9.02183 76.7896 9.1465C76.7016 9.27117 76.6576 9.4105 76.6576 9.5645C76.6576 9.71117 76.6814 9.83767 76.7291 9.944C76.7767 10.0503 76.8409 10.1383 76.9216 10.208C77.0059 10.274 77.1031 10.3235 77.2131 10.3565C77.3267 10.3858 77.4477 10.4005 77.5761 10.4005C77.7484 10.4005 77.9061 10.384 78.0491 10.351C78.1921 10.3143 78.3259 10.263 78.4506 10.197C78.5789 10.131 78.6999 10.0522 78.8136 9.9605C78.9309 9.86883 79.0446 9.76433 79.1546 9.647V8.492ZM75.9921 6.215C76.3001 5.918 76.6319 5.69617 76.9876 5.5495C77.3432 5.40283 77.7374 5.3295 78.1701 5.3295C78.4817 5.3295 78.7586 5.38083 79.0006 5.4835C79.2426 5.58617 79.4461 5.72917 79.6111 5.9125C79.7761 6.09583 79.9007 6.31767 79.9851 6.578C80.0694 6.83833 80.1116 7.12433 80.1116 7.436V11H79.6771C79.5817 11 79.5084 10.9853 79.4571 10.956C79.4057 10.923 79.3654 10.8607 79.3361 10.769L79.2261 10.241C79.0794 10.3767 78.9364 10.4977 78.7971 10.604C78.6577 10.7067 78.5111 10.7947 78.3571 10.868C78.2031 10.9377 78.0381 10.9908 77.8621 11.0275C77.6897 11.0678 77.4972 11.088 77.2846 11.088C77.0682 11.088 76.8647 11.0587 76.6741 11C76.4834 10.9377 76.3166 10.846 76.1736 10.725C76.0342 10.604 75.9224 10.4518 75.8381 10.2685C75.7574 10.0815 75.7171 9.8615 75.7171 9.6085C75.7171 9.3885 75.7776 9.17767 75.8986 8.976C76.0196 8.77067 76.2157 8.58917 76.4871 8.4315C76.7584 8.27383 77.1122 8.1455 77.5486 8.0465C77.9849 7.94383 78.5202 7.88517 79.1546 7.8705V7.436C79.1546 7.00333 79.0611 6.677 78.8741 6.457C78.6871 6.23333 78.4139 6.1215 78.0546 6.1215C77.8126 6.1215 77.6091 6.15267 77.4441 6.215C77.2827 6.27367 77.1416 6.3415 77.0206 6.4185C76.9032 6.49183 76.8006 6.55967 76.7126 6.622C76.6282 6.68067 76.5439 6.71 76.4596 6.71C76.3936 6.71 76.3367 6.6935 76.2891 6.6605C76.2414 6.62383 76.2011 6.57983 76.1681 6.5285L75.9921 6.215ZM85.5328 6.754C85.3495 6.50833 85.1515 6.33783 84.9388 6.2425C84.7262 6.1435 84.4878 6.094 84.2238 6.094C83.7068 6.094 83.309 6.27917 83.0303 6.6495C82.7517 7.01983 82.6123 7.54783 82.6123 8.2335C82.6123 8.5965 82.6435 8.90817 82.7058 9.1685C82.7682 9.42517 82.8598 9.63783 82.9808 9.8065C83.1018 9.9715 83.2503 10.0925 83.4263 10.1695C83.6023 10.2465 83.8022 10.285 84.0258 10.285C84.3485 10.285 84.629 10.2117 84.8673 10.065C85.1093 9.91833 85.3312 9.71117 85.5328 9.4435V6.754ZM86.5118 2.8985V11H85.9288C85.7895 11 85.7015 10.9322 85.6648 10.7965L85.5768 10.12C85.3385 10.406 85.0672 10.637 84.7628 10.813C84.4585 10.989 84.1065 11.077 83.7068 11.077C83.3878 11.077 83.0982 11.0165 82.8378 10.8955C82.5775 10.7708 82.3557 10.5893 82.1723 10.351C81.989 10.1127 81.8478 9.81567 81.7488 9.46C81.6498 9.10433 81.6003 8.6955 81.6003 8.2335C81.6003 7.82283 81.6553 7.4415 81.7653 7.0895C81.8753 6.73383 82.033 6.42583 82.2383 6.1655C82.4437 5.90517 82.6948 5.70167 82.9918 5.555C83.2925 5.40467 83.6298 5.3295 84.0038 5.3295C84.3448 5.3295 84.6363 5.38817 84.8783 5.5055C85.124 5.61917 85.3422 5.77867 85.5328 5.984V2.8985H86.5118ZM93.8211 5.3405C94.2281 5.3405 94.5947 5.40833 94.9211 5.544C95.2474 5.67967 95.5261 5.87217 95.7571 6.1215C95.9881 6.37083 96.1641 6.67333 96.2851 7.029C96.4097 7.381 96.4721 7.77517 96.4721 8.2115C96.4721 8.6515 96.4097 9.0475 96.2851 9.3995C96.1641 9.7515 95.9881 10.0522 95.7571 10.3015C95.5261 10.5508 95.2474 10.7433 94.9211 10.879C94.5947 11.011 94.2281 11.077 93.8211 11.077C93.4104 11.077 93.0401 11.011 92.7101 10.879C92.3837 10.7433 92.1051 10.5508 91.8741 10.3015C91.6431 10.0522 91.4652 9.7515 91.3406 9.3995C91.2196 9.0475 91.1591 8.6515 91.1591 8.2115C91.1591 7.77517 91.2196 7.381 91.3406 7.029C91.4652 6.67333 91.6431 6.37083 91.8741 6.1215C92.1051 5.87217 92.3837 5.67967 92.7101 5.544C93.0401 5.40833 93.4104 5.3405 93.8211 5.3405ZM93.8211 10.3125C94.3711 10.3125 94.7817 10.1292 95.0531 9.7625C95.3244 9.39217 95.4601 8.877 95.4601 8.217C95.4601 7.55333 95.3244 7.03633 95.0531 6.666C94.7817 6.29567 94.3711 6.1105 93.8211 6.1105C93.5424 6.1105 93.2986 6.15817 93.0896 6.2535C92.8842 6.34883 92.7119 6.48633 92.5726 6.666C92.4369 6.84567 92.3342 7.0675 92.2646 7.3315C92.1986 7.59183 92.1656 7.887 92.1656 8.217C92.1656 8.877 92.3012 9.39217 92.5726 9.7625C92.8476 10.1292 93.2637 10.3125 93.8211 10.3125ZM98.9378 6.237C99.0588 6.10133 99.1871 5.9785 99.3228 5.8685C99.4584 5.7585 99.6014 5.665 99.7518 5.588C99.9058 5.50733 100.067 5.44683 100.236 5.4065C100.408 5.3625 100.593 5.3405 100.791 5.3405C101.096 5.3405 101.363 5.39183 101.594 5.4945C101.829 5.5935 102.023 5.7365 102.177 5.9235C102.335 6.10683 102.454 6.32867 102.535 6.589C102.615 6.84933 102.656 7.13717 102.656 7.4525V11H101.671V7.4525C101.671 7.03083 101.574 6.7045 101.38 6.4735C101.189 6.23883 100.898 6.1215 100.505 6.1215C100.216 6.1215 99.9443 6.19117 99.6913 6.3305C99.4419 6.46983 99.2109 6.65867 98.9983 6.897V11H98.0138V5.4285H98.6023C98.7416 5.4285 98.8278 5.49633 98.8608 5.632L98.9378 6.237ZM109.273 11.088C108.833 11.088 108.493 10.9652 108.255 10.7195C108.02 10.4738 107.903 10.12 107.903 9.658V6.248H107.232C107.173 6.248 107.124 6.2315 107.084 6.1985C107.043 6.16183 107.023 6.10683 107.023 6.0335V5.643L107.936 5.5275L108.162 3.806C108.173 3.751 108.196 3.707 108.233 3.674C108.273 3.63733 108.325 3.619 108.387 3.619H108.882V5.5385H110.494V6.248H108.882V9.592C108.882 9.82667 108.939 10.0008 109.053 10.1145C109.166 10.2282 109.313 10.285 109.493 10.285C109.595 10.285 109.683 10.2722 109.757 10.2465C109.834 10.2172 109.9 10.186 109.955 10.153C110.01 10.12 110.055 10.0907 110.092 10.065C110.132 10.0357 110.167 10.021 110.197 10.021C110.248 10.021 110.294 10.0522 110.334 10.1145L110.62 10.582C110.451 10.7397 110.248 10.8643 110.01 10.956C109.771 11.044 109.526 11.088 109.273 11.088ZM112.789 6.171C113.027 5.918 113.291 5.71633 113.581 5.566C113.871 5.41567 114.204 5.3405 114.582 5.3405C114.886 5.3405 115.154 5.39183 115.385 5.4945C115.62 5.5935 115.814 5.7365 115.968 5.9235C116.126 6.10683 116.245 6.32867 116.325 6.589C116.406 6.84933 116.446 7.13717 116.446 7.4525V11H115.462V7.4525C115.462 7.03083 115.365 6.7045 115.17 6.4735C114.98 6.23883 114.688 6.1215 114.296 6.1215C114.006 6.1215 113.735 6.19117 113.482 6.3305C113.233 6.46983 113.002 6.65867 112.789 6.897V11H111.804V2.8985H112.789V6.171ZM121.967 7.6065C121.967 7.37917 121.934 7.172 121.868 6.985C121.806 6.79433 121.712 6.63117 121.588 6.4955C121.467 6.35617 121.318 6.24983 121.142 6.1765C120.966 6.0995 120.766 6.061 120.543 6.061C120.073 6.061 119.701 6.1985 119.426 6.4735C119.155 6.74483 118.986 7.1225 118.92 7.6065H121.967ZM122.759 10.219C122.638 10.3657 122.493 10.494 122.325 10.604C122.156 10.7103 121.975 10.7983 121.78 10.868C121.59 10.9377 121.392 10.989 121.186 11.022C120.981 11.0587 120.777 11.077 120.576 11.077C120.191 11.077 119.835 11.0128 119.509 10.8845C119.186 10.7525 118.906 10.5618 118.667 10.3125C118.433 10.0595 118.249 9.74783 118.117 9.3775C117.985 9.00717 117.919 8.58183 117.919 8.1015C117.919 7.71283 117.978 7.34983 118.095 7.0125C118.216 6.67517 118.389 6.38367 118.612 6.138C118.836 5.88867 119.109 5.69433 119.432 5.555C119.754 5.412 120.117 5.3405 120.521 5.3405C120.854 5.3405 121.162 5.39733 121.445 5.511C121.731 5.621 121.976 5.78233 122.182 5.995C122.391 6.204 122.554 6.46433 122.671 6.776C122.789 7.084 122.847 7.436 122.847 7.832C122.847 7.986 122.831 8.08867 122.798 8.14C122.765 8.19133 122.702 8.217 122.611 8.217H118.887C118.898 8.569 118.946 8.87517 119.03 9.1355C119.118 9.39583 119.239 9.614 119.393 9.79C119.547 9.96233 119.731 10.0925 119.943 10.1805C120.156 10.2648 120.394 10.307 120.658 10.307C120.904 10.307 121.115 10.2795 121.291 10.2245C121.47 10.1658 121.624 10.1035 121.753 10.0375C121.881 9.9715 121.987 9.911 122.072 9.856C122.16 9.79733 122.235 9.768 122.297 9.768C122.378 9.768 122.44 9.79917 122.484 9.8615L122.759 10.219ZM40.692 23.074L39.4545 19.8675C39.4178 19.7722 39.3793 19.6622 39.339 19.5375C39.2987 19.4092 39.2602 19.2735 39.2235 19.1305C39.1465 19.4275 39.0677 19.675 38.987 19.873L37.7495 23.074H40.692ZM42.914 26H42.089C41.9937 26 41.9167 25.9762 41.858 25.9285C41.7993 25.8808 41.7553 25.8203 41.726 25.747L40.989 23.844H37.4525L36.7155 25.747C36.6935 25.813 36.6513 25.8717 36.589 25.923C36.5267 25.9743 36.4497 26 36.358 26H35.533L38.6845 18.1185H39.7625L42.914 26ZM44.9829 24.658C45.1625 24.9 45.3587 25.0705 45.5714 25.1695C45.784 25.2685 46.0224 25.318 46.2864 25.318C46.807 25.318 47.2067 25.1328 47.4854 24.7625C47.764 24.3922 47.9034 23.8642 47.9034 23.1785C47.9034 22.8155 47.8704 22.5038 47.8044 22.2435C47.742 21.9832 47.6504 21.7705 47.5294 21.6055C47.4084 21.4368 47.2599 21.314 47.0839 21.237C46.9079 21.16 46.708 21.1215 46.4844 21.1215C46.1654 21.1215 45.8849 21.1948 45.6429 21.3415C45.4045 21.4882 45.1845 21.6953 44.9829 21.963V24.658ZM44.9334 21.292C45.168 21.0023 45.4394 20.7695 45.7474 20.5935C46.0554 20.4175 46.4074 20.3295 46.8034 20.3295C47.126 20.3295 47.4175 20.3918 47.6779 20.5165C47.9382 20.6375 48.16 20.819 48.3434 21.061C48.5267 21.2993 48.6679 21.5963 48.7669 21.952C48.8659 22.3077 48.9154 22.7165 48.9154 23.1785C48.9154 23.5892 48.8604 23.9723 48.7504 24.328C48.6404 24.68 48.4809 24.9862 48.2719 25.2465C48.0665 25.5032 47.8135 25.7067 47.5129 25.857C47.2159 26.0037 46.8804 26.077 46.5064 26.077C46.1654 26.077 45.872 26.0202 45.6264 25.9065C45.3844 25.7892 45.1699 25.6278 44.9829 25.4225V27.8865H43.9984V20.4285H44.5869C44.7262 20.4285 44.8124 20.4963 44.8454 20.632L44.9334 21.292ZM51.4489 24.658C51.6285 24.9 51.8247 25.0705 52.0374 25.1695C52.25 25.2685 52.4884 25.318 52.7524 25.318C53.273 25.318 53.6727 25.1328 53.9514 24.7625C54.23 24.3922 54.3694 23.8642 54.3694 23.1785C54.3694 22.8155 54.3364 22.5038 54.2704 22.2435C54.208 21.9832 54.1164 21.7705 53.9954 21.6055C53.8744 21.4368 53.7259 21.314 53.5499 21.237C53.3739 21.16 53.174 21.1215 52.9504 21.1215C52.6314 21.1215 52.3509 21.1948 52.1089 21.3415C51.8705 21.4882 51.6505 21.6953 51.4489 21.963V24.658ZM51.3994 21.292C51.634 21.0023 51.9054 20.7695 52.2134 20.5935C52.5214 20.4175 52.8734 20.3295 53.2694 20.3295C53.592 20.3295 53.8835 20.3918 54.1439 20.5165C54.4042 20.6375 54.626 20.819 54.8094 21.061C54.9927 21.2993 55.1339 21.5963 55.2329 21.952C55.3319 22.3077 55.3814 22.7165 55.3814 23.1785C55.3814 23.5892 55.3264 23.9723 55.2164 24.328C55.1064 24.68 54.9469 24.9862 54.7379 25.2465C54.5325 25.5032 54.2795 25.7067 53.9789 25.857C53.6819 26.0037 53.3464 26.077 52.9724 26.077C52.6314 26.077 52.338 26.0202 52.0924 25.9065C51.8504 25.7892 51.6359 25.6278 51.4489 25.4225V27.8865H50.4644V20.4285H51.0529C51.1922 20.4285 51.2784 20.4963 51.3114 20.632L51.3994 21.292ZM64.3073 19.3505C64.2743 19.4055 64.2377 19.4477 64.1973 19.477C64.1607 19.5027 64.1148 19.5155 64.0598 19.5155C63.9975 19.5155 63.9242 19.4843 63.8398 19.422C63.7555 19.3597 63.6492 19.2918 63.5208 19.2185C63.3962 19.1415 63.244 19.0718 63.0643 19.0095C62.8883 18.9472 62.6738 18.916 62.4208 18.916C62.1825 18.916 61.9717 18.949 61.7883 19.015C61.6087 19.0773 61.4565 19.1635 61.3318 19.2735C61.2108 19.3835 61.1192 19.5137 61.0568 19.664C60.9945 19.8107 60.9633 19.9702 60.9633 20.1425C60.9633 20.3625 61.0165 20.5458 61.1228 20.6925C61.2328 20.8355 61.3758 20.9583 61.5518 21.061C61.7315 21.1637 61.9332 21.2535 62.1568 21.3305C62.3842 21.4038 62.6152 21.4808 62.8498 21.5615C63.0882 21.6422 63.3192 21.7338 63.5428 21.8365C63.7702 21.9355 63.9718 22.062 64.1478 22.216C64.3275 22.37 64.4705 22.5588 64.5768 22.7825C64.6868 23.0062 64.7418 23.2812 64.7418 23.6075C64.7418 23.9522 64.6832 24.2767 64.5658 24.581C64.4485 24.8817 64.2762 25.1438 64.0488 25.3675C63.8252 25.5912 63.5483 25.7672 63.2183 25.8955C62.892 26.0238 62.5198 26.088 62.1018 26.088C61.5885 26.088 61.1228 25.9963 60.7048 25.813C60.2868 25.626 59.9293 25.3748 59.6323 25.0595L59.9403 24.5535C59.9697 24.5132 60.0045 24.4802 60.0448 24.4545C60.0888 24.4252 60.1365 24.4105 60.1878 24.4105C60.2355 24.4105 60.2887 24.4307 60.3473 24.471C60.4097 24.5077 60.4793 24.5553 60.5563 24.614C60.6333 24.6727 60.7213 24.7368 60.8203 24.8065C60.9193 24.8762 61.0312 24.9403 61.1558 24.999C61.2842 25.0577 61.429 25.1072 61.5903 25.1475C61.7517 25.1842 61.9332 25.2025 62.1348 25.2025C62.3878 25.2025 62.6133 25.1677 62.8113 25.098C63.0093 25.0283 63.1762 24.9312 63.3118 24.8065C63.4512 24.6782 63.5575 24.526 63.6308 24.35C63.7042 24.174 63.7408 23.9778 63.7408 23.7615C63.7408 23.5232 63.6858 23.3288 63.5758 23.1785C63.4695 23.0245 63.3283 22.8962 63.1523 22.7935C62.9763 22.6908 62.7747 22.6047 62.5473 22.535C62.32 22.4617 62.089 22.3883 61.8543 22.315C61.6197 22.238 61.3887 22.15 61.1613 22.051C60.934 21.952 60.7323 21.8237 60.5563 21.666C60.3803 21.5083 60.2373 21.3122 60.1273 21.0775C60.021 20.8392 59.9678 20.5458 59.9678 20.1975C59.9678 19.9188 60.021 19.6493 60.1273 19.389C60.2373 19.1287 60.395 18.8977 60.6003 18.696C60.8093 18.4943 61.0642 18.333 61.3648 18.212C61.6692 18.091 62.0175 18.0305 62.4098 18.0305C62.8498 18.0305 63.2495 18.1002 63.6088 18.2395C63.9718 18.3788 64.2908 18.5805 64.5658 18.8445L64.3073 19.3505ZM67.7809 26.088C67.3409 26.088 67.0018 25.9652 66.7634 25.7195C66.5288 25.4738 66.4114 25.12 66.4114 24.658V21.248H65.7404C65.6818 21.248 65.6323 21.2315 65.5919 21.1985C65.5516 21.1618 65.5314 21.1068 65.5314 21.0335V20.643L66.4444 20.5275L66.6699 18.806C66.6809 18.751 66.7048 18.707 66.7414 18.674C66.7818 18.6373 66.8331 18.619 66.8954 18.619H67.3904V20.5385H69.0019V21.248H67.3904V24.592C67.3904 24.8267 67.4473 25.0008 67.5609 25.1145C67.6746 25.2282 67.8213 25.285 68.0009 25.285C68.1036 25.285 68.1916 25.2722 68.2649 25.2465C68.3419 25.2172 68.4079 25.186 68.4629 25.153C68.5179 25.12 68.5638 25.0907 68.6004 25.065C68.6408 25.0357 68.6756 25.021 68.7049 25.021C68.7563 25.021 68.8021 25.0522 68.8424 25.1145L69.1284 25.582C68.9598 25.7397 68.7563 25.8643 68.5179 25.956C68.2796 26.044 68.0339 26.088 67.7809 26.088ZM72.6291 20.3405C73.0361 20.3405 73.4027 20.4083 73.7291 20.544C74.0554 20.6797 74.3341 20.8722 74.5651 21.1215C74.7961 21.3708 74.9721 21.6733 75.0931 22.029C75.2177 22.381 75.2801 22.7752 75.2801 23.2115C75.2801 23.6515 75.2177 24.0475 75.0931 24.3995C74.9721 24.7515 74.7961 25.0522 74.5651 25.3015C74.3341 25.5508 74.0554 25.7433 73.7291 25.879C73.4027 26.011 73.0361 26.077 72.6291 26.077C72.2184 26.077 71.8481 26.011 71.5181 25.879C71.1917 25.7433 70.9131 25.5508 70.6821 25.3015C70.4511 25.0522 70.2732 24.7515 70.1486 24.3995C70.0276 24.0475 69.9671 23.6515 69.9671 23.2115C69.9671 22.7752 70.0276 22.381 70.1486 22.029C70.2732 21.6733 70.4511 21.3708 70.6821 21.1215C70.9131 20.8722 71.1917 20.6797 71.5181 20.544C71.8481 20.4083 72.2184 20.3405 72.6291 20.3405ZM72.6291 25.3125C73.1791 25.3125 73.5897 25.1292 73.8611 24.7625C74.1324 24.3922 74.2681 23.877 74.2681 23.217C74.2681 22.5533 74.1324 22.0363 73.8611 21.666C73.5897 21.2957 73.1791 21.1105 72.6291 21.1105C72.3504 21.1105 72.1066 21.1582 71.8976 21.2535C71.6922 21.3488 71.5199 21.4863 71.3806 21.666C71.2449 21.8457 71.1422 22.0675 71.0726 22.3315C71.0066 22.5918 70.9736 22.887 70.9736 23.217C70.9736 23.877 71.1092 24.3922 71.3806 24.7625C71.6556 25.1292 72.0717 25.3125 72.6291 25.3125ZM77.7513 21.545C77.9273 21.1637 78.1436 20.8667 78.4003 20.654C78.657 20.4377 78.9705 20.3295 79.3408 20.3295C79.4581 20.3295 79.57 20.3423 79.6763 20.368C79.7863 20.3937 79.8835 20.434 79.9678 20.489L79.8963 21.2205C79.8743 21.3122 79.8193 21.358 79.7313 21.358C79.68 21.358 79.6048 21.347 79.5058 21.325C79.4068 21.303 79.295 21.292 79.1703 21.292C78.9943 21.292 78.8366 21.3177 78.6973 21.369C78.5616 21.4203 78.4388 21.4973 78.3288 21.6C78.2225 21.699 78.1253 21.8237 78.0373 21.974C77.953 22.1207 77.876 22.2893 77.8063 22.48V26H76.8218V20.4285H77.3828C77.4891 20.4285 77.5625 20.4487 77.6028 20.489C77.6431 20.5293 77.6706 20.599 77.6853 20.698L77.7513 21.545ZM84.632 22.6065C84.632 22.3792 84.599 22.172 84.533 21.985C84.4707 21.7943 84.3772 21.6312 84.2525 21.4955C84.1315 21.3562 83.983 21.2498 83.807 21.1765C83.631 21.0995 83.4312 21.061 83.2075 21.061C82.7382 21.061 82.366 21.1985 82.091 21.4735C81.8197 21.7448 81.651 22.1225 81.585 22.6065H84.632ZM85.424 25.219C85.303 25.3657 85.1582 25.494 84.9895 25.604C84.8209 25.7103 84.6394 25.7983 84.445 25.868C84.2544 25.9377 84.0564 25.989 83.851 26.022C83.6457 26.0587 83.4422 26.077 83.2405 26.077C82.8555 26.077 82.4999 26.0128 82.1735 25.8845C81.8509 25.7525 81.5704 25.5618 81.332 25.3125C81.0974 25.0595 80.914 24.7478 80.782 24.3775C80.65 24.0072 80.584 23.5818 80.584 23.1015C80.584 22.7128 80.6427 22.3498 80.76 22.0125C80.881 21.6752 81.0534 21.3837 81.277 21.138C81.5007 20.8887 81.7739 20.6943 82.0965 20.555C82.4192 20.412 82.7822 20.3405 83.1855 20.3405C83.5192 20.3405 83.8272 20.3973 84.1095 20.511C84.3955 20.621 84.6412 20.7823 84.8465 20.995C85.0555 21.204 85.2187 21.4643 85.336 21.776C85.4534 22.084 85.512 22.436 85.512 22.832C85.512 22.986 85.4955 23.0887 85.4625 23.14C85.4295 23.1913 85.3672 23.217 85.2755 23.217H81.552C81.563 23.569 81.6107 23.8752 81.695 24.1355C81.783 24.3958 81.904 24.614 82.058 24.79C82.212 24.9623 82.3954 25.0925 82.608 25.1805C82.8207 25.2648 83.059 25.307 83.323 25.307C83.5687 25.307 83.7795 25.2795 83.9555 25.2245C84.1352 25.1658 84.2892 25.1035 84.4175 25.0375C84.5459 24.9715 84.6522 24.911 84.7365 24.856C84.8245 24.7973 84.8997 24.768 84.962 24.768C85.0427 24.768 85.105 24.7992 85.149 24.8615L85.424 25.219Z" fill="white"/>
</svg>
