<svg width="91" height="90" viewBox="0 0 91 90" fill="none" xmlns="http://www.w3.org/2000/svg">
<path d="M45.5 0C51.4674 0 57.1903 2.37053 61.4099 6.5901C65.6295 10.8097 68 16.5326 68 22.5C68 28.4674 65.6295 34.1903 61.4099 38.4099C57.1903 42.6295 51.4674 45 45.5 45C39.5326 45 33.8097 42.6295 29.5901 38.4099C25.3705 34.1903 23 28.4674 23 22.5C23 16.5326 25.3705 10.8097 29.5901 6.5901C33.8097 2.37053 39.5326 0 45.5 0ZM45.5 56.25C70.3625 56.25 90.5 66.3187 90.5 78.75V90H0.5V78.75C0.5 66.3187 20.6375 56.25 45.5 56.25Z" fill="#686B6F"/>
</svg>
