<svg width="25" height="25" viewBox="0 0 25 25" fill="none" xmlns="http://www.w3.org/2000/svg">
<path d="M12.5974 15.1898C12.4648 15.1898 12.3376 15.1372 12.2439 15.0434C12.1501 14.9496 12.0974 14.8225 12.0974 14.6898C12.0407 14.1872 12.1485 13.6797 12.4045 13.2434C12.6605 12.8071 13.051 12.4655 13.5174 12.2698C13.8766 12.1172 14.19 11.8738 14.4266 11.5635C14.6633 11.2532 14.8152 10.8866 14.8674 10.4998C14.8674 9.92698 14.6398 9.37757 14.2348 8.97249C13.8297 8.56741 13.2803 8.33984 12.7074 8.33984C12.1345 8.33984 11.5851 8.56741 11.1801 8.97249C10.775 9.37757 10.5474 9.92698 10.5474 10.4998C10.5437 10.658 10.5605 10.816 10.5974 10.9698C10.6119 11.0355 10.6132 11.1034 10.6014 11.1696C10.5897 11.2358 10.565 11.299 10.5287 11.3556C10.4925 11.4123 10.4455 11.4612 10.3904 11.4997C10.3352 11.5382 10.2731 11.5654 10.2074 11.5798C10.1418 11.5943 10.0739 11.5957 10.0077 11.5839C9.94151 11.5721 9.87828 11.5474 9.82164 11.5112C9.765 11.475 9.71604 11.4279 9.67757 11.3728C9.63909 11.3177 9.61186 11.2555 9.59741 11.1898C9.54938 10.963 9.52591 10.7317 9.52741 10.4998C9.52741 9.66176 9.86034 8.858 10.453 8.26539C11.0456 7.67277 11.8493 7.33984 12.6874 7.33984C13.5255 7.33984 14.3293 7.67277 14.9219 8.26539C15.5145 8.858 15.8474 9.66176 15.8474 10.4998C15.7939 11.0715 15.5899 11.6189 15.2562 12.0861C14.9224 12.5533 14.4709 12.9238 13.9474 13.1598C13.5174 13.3798 13.0774 13.5998 13.0774 14.6798C13.0801 14.8108 13.0314 14.9376 12.9416 15.0329C12.8519 15.1283 12.7283 15.1846 12.5974 15.1898Z" fill="white" stroke="white"/>
<path d="M12.707 21.7695C10.8281 21.7695 8.99139 21.2124 7.42912 20.1685C5.86685 19.1246 4.64921 17.6409 3.93018 15.905C3.21115 14.1691 3.02302 12.259 3.38958 10.4162C3.75613 8.57336 4.66092 6.88062 5.98952 5.55202C7.31812 4.22342 9.01086 3.31863 10.8537 2.95208C12.6965 2.58552 14.6066 2.77365 16.3425 3.49268C18.0784 4.21171 19.5621 5.42935 20.606 6.99162C21.6499 8.55389 22.207 10.3906 22.207 12.2695C22.2044 14.7883 21.2026 17.2031 19.4216 18.9841C17.6406 20.7651 15.2258 21.7669 12.707 21.7695ZM12.707 3.76954C11.0259 3.76954 9.38251 4.26805 7.98469 5.20204C6.58687 6.13604 5.4974 7.46355 4.85406 9.01673C4.21071 10.5699 4.04239 12.279 4.37036 13.9278C4.69834 15.5766 5.50788 17.0912 6.69663 18.2799C7.88537 19.4687 9.39993 20.2782 11.0488 20.6062C12.6976 20.9342 14.4067 20.7659 15.9598 20.1225C17.513 19.4792 18.8405 18.3897 19.7745 16.9919C20.7085 15.5941 21.207 13.9507 21.207 12.2695C21.2044 10.016 20.308 7.85554 18.7145 6.26205C17.121 4.66857 14.9606 3.77218 12.707 3.76954Z" fill="white" stroke="white"/>
<path d="M12.7059 17.8884C12.5833 17.8884 12.4634 17.8521 12.3615 17.7839C12.2595 17.7158 12.1801 17.619 12.1331 17.5057C12.0862 17.3924 12.0739 17.2678 12.0979 17.1475C12.1218 17.0272 12.1808 16.9167 12.2675 16.83C12.3542 16.7433 12.4647 16.6843 12.585 16.6604C12.7052 16.6364 12.8299 16.6487 12.9432 16.6956C13.0565 16.7426 13.1533 16.822 13.2214 16.924C13.2896 17.0259 13.3259 17.1458 13.3259 17.2684C13.3259 17.4329 13.2606 17.5906 13.1443 17.7068C13.0281 17.8231 12.8704 17.8884 12.7059 17.8884Z" fill="white" stroke="white"/>
</svg>
