<svg width="26" height="26" viewBox="0 0 26 26" fill="none" xmlns="http://www.w3.org/2000/svg">
<g clip-path="url(#clip0_94_4940)">
<path d="M25.168 4.97786C24.2305 5.39453 23.293 5.70703 22.2513 5.8112C23.293 5.1862 24.1263 4.14453 24.543 2.9987C23.5013 3.6237 22.4596 4.04036 21.3138 4.2487C20.3763 3.20703 19.0221 2.58203 17.5638 2.58203C14.7513 2.58203 12.4596 4.8737 12.4596 7.6862C12.4596 8.10286 12.4596 8.51953 12.5638 8.83203C8.1888 8.6237 4.4388 6.54036 1.9388 3.41536C1.41797 4.2487 1.20964 5.08203 1.20964 6.01953C1.20964 7.79036 2.14714 9.35286 3.5013 10.2904C2.66797 10.2904 1.83464 10.082 1.20964 9.66536V9.76953C1.20964 12.2695 2.98047 14.3529 5.27214 14.7695C4.85547 14.8737 4.4388 14.9779 3.91797 14.9779C3.60547 14.9779 3.29297 14.9779 2.98047 14.8737C3.60547 16.957 5.48047 18.4154 7.77214 18.4154C6.0013 19.7695 3.8138 20.6029 1.41797 20.6029C1.0013 20.6029 0.584635 20.6029 0.167969 20.4987C2.45964 21.957 5.16797 22.7904 7.98047 22.7904C17.4596 22.7904 22.5638 14.9779 22.5638 8.20703V7.58203C23.6055 6.85286 24.4388 5.91536 25.168 4.97786Z" fill="white"/>
</g>
<defs>
<clipPath id="clip0_94_4940">
<rect width="25" height="25" fill="white" transform="translate(0.167969 0.5)"/>
</clipPath>
</defs>
</svg>
