<svg width="30" height="26" viewBox="0 0 30 26" fill="none" xmlns="http://www.w3.org/2000/svg">
<path d="M29.5455 9.13778C29.5455 9.13778 29.3182 7.20597 28.4091 6.41051C27.3864 5.27415 26.25 5.27415 25.6818 5.27415C21.8182 5.04687 16.1364 5.04688 16.1364 5.04688C16.1364 5.04688 10.4545 5.04687 6.59091 5.27415C6.02273 5.38778 4.88636 5.38778 3.86364 6.41051C3.06818 7.20597 2.72727 9.13778 2.72727 9.13778C2.72727 9.13778 2.5 11.2969 2.5 13.5696V15.6151C2.5 17.7741 2.72727 20.0469 2.72727 20.0469C2.72727 20.0469 2.95455 21.9787 3.86364 22.7741C4.88636 23.9105 6.25 23.7969 6.81818 23.9105C8.97727 24.1378 16.1364 24.1378 16.1364 24.1378C16.1364 24.1378 21.8182 24.1378 25.6818 23.7969C26.25 23.6832 27.3864 23.6832 28.4091 22.6605C29.2045 21.8651 29.5455 19.9332 29.5455 19.9332C29.5455 19.9332 29.7727 17.7741 29.7727 15.5014V13.456C29.7727 11.2969 29.5455 9.13778 29.5455 9.13778ZM13.2955 18.1151V10.5014L20.6818 14.3651L13.2955 18.1151Z" fill="white"/>
</svg>
